<!DOCTYPE svg PUBLIC "-//W3C//DTD SVG 20010904//EN" "http://www.w3.org/TR/2001/REC-SVG-20010904/DTD/svg10.dtd">
<svg version="1.0" xmlns="http://www.w3.org/2000/svg" width="11px" height="14px" viewBox="0 0 110 140" preserveAspectRatio="xMidYMid meet">
<g id="layer1" fill="#ffe8d1" stroke="none">
 <path d="M28 3 c7 -3 16 -2 19 1 4 3 -2 6 -13 5 -11 0 -14 -3 -6 -6z"/>
 <path d="M68 3 c7 -3 16 -2 19 1 4 3 -2 6 -13 5 -11 0 -14 -3 -6 -6z"/>
 </g>
<g id="layer2" fill="#ffe0c1" stroke="none">
 <path d="M11 94 c0 -11 3 -14 6 -6 3 7 2 16 -1 19 -3 4 -6 -2 -5 -13z"/>
 <path d="M91 94 c0 -11 3 -14 6 -6 3 7 2 16 -1 19 -3 4 -6 -2 -5 -13z"/>
 </g>
<g id="layer3" fill="#ffc992" stroke="none">
 <path d="M1 104 c0 -11 3 -14 6 -6 3 7 2 16 -1 19 -3 4 -6 -2 -5 -13z"/>
 <path d="M101 104 c0 -11 3 -14 6 -6 3 7 2 16 -1 19 -3 4 -6 -2 -5 -13z"/>
 <path d="M58 3 c7 -3 16 -2 19 1 4 3 -2 6 -13 5 -11 0 -14 -3 -6 -6z"/>
 </g>
<g id="layer4" fill="#ffb66c" stroke="none">
 </g>
<g id="layer5" fill="#ffdab4" stroke="none">
 <path d="M70 35 c0 -8 5 -15 10 -15 6 0 10 7 10 15 0 8 -4 15 -10 15 -5 0 -10 -7 -10 -15z"/>
 <path d="M20 30 c0 -5 5 -10 10 -10 6 0 10 5 10 10 0 6 -4 10 -10 10 -5 0 -10 -4 -10 -10z"/>
 </g>
<g id="layer6" fill="#ffa041" stroke="none">
 <path d="M38 133 c6 -2 18 -2 25 0 6 3 1 5 -13 5 -14 0 -19 -2 -12 -5z"/>
 <path d="M40 80 c0 -5 9 -10 20 -10 11 0 20 5 20 10 0 6 -9 10 -20 10 -11 0 -20 -4 -20 -10z"/>
 <path d="M48 3 c7 -3 16 -2 19 1 4 3 -2 6 -13 5 -11 0 -14 -3 -6 -6z"/>
 </g>
<g id="layer7" fill="#ffa64d" stroke="none">
 <path d="M38 133 c12 -2 30 -2 40 0 9 3 -1 5 -23 4 -22 0 -30 -2 -17 -4z"/>
 <path d="M38 3 c7 -3 16 -2 19 1 4 3 -2 6 -13 5 -11 0 -14 -3 -6 -6z"/>
 </g>
<g id="layer8" fill="#fffefd" stroke="none">
 <path d="M0 54 c0 -48 2 -54 20 -54 17 0 19 5 14 25 -3 14 -1 32 6 40 14 17 7 31 -20 38 -18 5 -20 0 -20 -49z"/>
 <path d="M83 100 c-25 -10 -30 -25 -12 -36 6 -3 9 -19 5 -35 -5 -24 -2 -29 14 -29 18 0 20 7 20 55 0 30 -1 55 -2 54 -2 0 -13 -4 -25 -9z"/>
 </g>
<g id="layer9" fill="#ff9933" stroke="none">
 <path d="M0 115 c0 -8 9 -19 21 -26 15 -8 18 -14 10 -22 -6 -6 -11 -21 -11 -34 0 -20 5 -23 35 -23 30 0 35 3 35 24 0 14 -5 28 -11 32 -8 5 -4 13 11 24 33 25 17 40 -41 40 -36 0 -49 -4 -49 -15z"/>
 </g>

</svg>